<svg width="300" height="300" viewBox="0 0 300 300" fill="none" xmlns="http://www.w3.org/2000/svg">
<path d="M192.849 264.649C205.515 264.649 215.782 253.305 215.782 239.311C215.782 225.317 205.515 213.973 192.849 213.973C180.183 213.973 169.915 225.317 169.915 239.311C169.915 253.305 180.183 264.649 192.849 264.649Z" fill="#FF005A"/>
<path d="M260.121 190.324C272.787 190.324 283.054 178.98 283.054 164.986C283.054 150.993 272.787 139.649 260.121 139.649C247.455 139.649 237.187 150.993 237.187 164.986C237.187 178.98 247.455 190.324 260.121 190.324Z" fill="#FF005A"/>
<path d="M192.849 190.324C205.515 190.324 215.782 178.98 215.782 164.986C215.782 150.993 205.515 139.649 192.849 139.649C180.183 139.649 169.915 150.993 169.915 164.986C169.915 178.98 180.183 190.324 192.849 190.324Z" fill="#FF005A"/>
<path d="M192.849 190.324C205.515 190.324 215.782 178.98 215.782 164.986C215.782 150.993 205.515 139.649 192.849 139.649C180.183 139.649 169.915 150.993 169.915 164.986C169.915 178.98 180.183 190.324 192.849 190.324Z" fill="#FF005A"/>
<path d="M192.849 109.243C205.515 109.243 215.782 97.8991 215.782 83.9054C215.782 69.9117 205.515 58.5676 192.849 58.5676C180.183 58.5676 169.915 69.9117 169.915 83.9054C169.915 97.8991 180.183 109.243 192.849 109.243Z" fill="#FF005A"/>
<path d="M26.9337 201.139C39.5996 201.139 49.8674 189.794 49.8674 175.801C49.8674 161.807 39.5996 150.463 26.9337 150.463C14.2678 150.463 4 161.807 4 175.801C4 189.794 14.2678 201.139 26.9337 201.139Z" fill="#FF005A"/>
<path d="M103.379 120.057C116.045 120.057 126.313 108.713 126.313 94.7196C126.313 80.7259 116.045 69.3818 103.379 69.3818C90.7133 69.3818 80.4456 80.7259 80.4456 94.7196C80.4456 108.713 90.7133 120.057 103.379 120.057Z" fill="#FF005A"/>
<path d="M200.574 193.508H194.726V261.851C194.726 265.97 192.733 268.027 188.747 268.027H150.15C148.417 268.027 147.031 267.547 145.991 266.591C144.952 265.537 144.432 263.959 144.432 261.851L144.822 154.598C144.822 152.683 145.342 151.152 146.381 150.003C147.508 148.855 148.894 148.28 150.54 148.28H179.52L139.234 61.1267C138.367 59.4037 138.107 57.9199 138.454 56.6757C138.8 55.4314 139.927 54.8091 141.833 54.8091H143.002H143.652H182.639H183.029H233.194C239.172 54.8091 244.801 55.7186 250.088 57.5371C255.372 59.3557 260.225 61.8926 264.643 65.1469C269.062 68.3057 273.046 72.1344 276.599 76.6334C280.149 81.0365 283.14 85.8226 285.565 90.9916C288.078 96.1605 289.983 101.617 291.283 107.36C292.583 113.007 293.234 118.751 293.234 124.59C293.234 131.481 292.323 138.278 290.503 144.978C288.684 151.678 286.085 157.9 282.706 163.644C279.327 169.387 275.211 174.508 270.361 179.007C265.509 183.506 260.05 186.999 253.987 189.488L288.944 261.709C291.023 265.922 289.941 268.027 285.696 268.027H240.991C237.178 268.027 234.233 265.922 232.154 261.709L200.574 193.508ZM243.719 124.302C243.719 121.048 243.156 117.985 242.031 115.113C240.902 112.146 239.343 109.561 237.352 107.36C235.358 105.158 232.976 103.435 230.203 102.191C227.433 100.851 224.356 100.181 220.978 100.181H210.97L232.674 145.265C236.138 143.255 238.823 140.479 240.731 136.937C242.722 133.3 243.719 129.088 243.719 124.302Z" fill="#5271FF" fill-opacity="0.8"/>
<path fill-rule="evenodd" clip-rule="evenodd" d="M191.668 214.057V261.851C191.668 262.902 191.538 263.814 191.28 264.595C190.788 264.632 190.291 264.649 189.791 264.649C177.125 264.649 166.857 253.304 166.857 239.311C166.857 225.318 177.125 213.973 189.791 213.973C190.423 213.973 191.049 214 191.668 214.057Z" fill="#122A55" fill-opacity="0.6"/>
<path fill-rule="evenodd" clip-rule="evenodd" d="M179.75 147.16C183.72 143.524 188.818 141.338 194.378 141.338C207.043 141.338 217.311 152.682 217.311 166.676C217.311 180.669 207.043 192.013 194.378 192.013C181.712 192.013 171.444 180.669 171.444 166.676C171.444 160.275 173.592 154.429 177.134 149.97H181.049L179.75 147.16Z" fill="#122A55" fill-opacity="0.6"/>
<path fill-rule="evenodd" clip-rule="evenodd" d="M281.467 159.771C281.37 159.936 281.275 160.101 281.177 160.265C277.798 166.008 273.682 171.129 268.832 175.628C264.01 180.099 258.589 183.578 252.571 186.064C242.826 183.141 235.658 173.299 235.658 161.608C235.658 147.615 245.926 136.27 258.592 136.27C270.698 136.27 280.614 146.635 281.467 159.771Z" fill="#122A55" fill-opacity="0.6"/>
<path d="M189.791 109.243C202.457 109.243 212.724 97.8991 212.724 83.9054C212.724 69.9117 202.457 58.5676 189.791 58.5676C177.125 58.5676 166.857 69.9117 166.857 83.9054C166.857 97.8991 177.125 109.243 189.791 109.243Z" fill="#122A55" fill-opacity="0.6"/>
<path d="M89.889 257.541C89.889 264.422 86.6429 267.861 80.1499 267.861H46.9572C40.5969 267.861 37.4168 264.422 37.4168 257.541V62.5405C37.4168 59.6125 38.2782 57.124 40.0007 55.0743C41.7234 53.0247 43.9758 52 46.7585 52H79.7524C82.4026 52 84.7213 53.0247 86.7089 55.0743C88.8292 57.124 89.889 59.6125 89.889 62.5405V257.541Z" fill="#5271FF" fill-opacity="0.8"/>
<path fill-rule="evenodd" clip-rule="evenodd" d="M87.5963 114.986C81.8727 110.379 78.1529 102.916 78.1529 94.4929C78.1529 86.0699 81.8727 78.6071 87.5963 74V114.986Z" fill="#122A55" fill-opacity="0.6"/>
<path fill-rule="evenodd" clip-rule="evenodd" d="M41 198.644V153.561C48.3935 157.767 53.4502 166.282 53.4502 176.102C53.4502 185.923 48.3935 194.439 41 198.644Z" fill="#122A55" fill-opacity="0.6"/>
</svg>
