<svg width="294" height="148" viewBox="0 0 294 148" fill="none" xmlns="http://www.w3.org/2000/svg">
<circle cx="146.5" cy="62.5" r="7.5" fill="#FF005A"/>
<circle cx="251.5" cy="64.5" r="7.5" fill="#FF005A"/>
<circle cx="92.5" cy="110.5" r="7.5" fill="#FF005A"/>
<circle cx="199.5" cy="64.5" r="7.5" fill="#FF005A"/>
<circle cx="168.5" cy="86.5" r="7.5" fill="#FF005A"/>
<circle cx="114.5" cy="88.5" r="7.5" fill="#FF005A"/>
<circle cx="275.5" cy="64.5" r="7.5" fill="#FF005A"/>
<circle cx="275.5" cy="88.5" r="7.5" fill="#FF005A"/>
<circle cx="92.5" cy="88.5" r="7.5" fill="#FF005A"/>
<circle cx="92.5" cy="88.5" r="7.5" fill="#FF005A"/>
<circle cx="92.5" cy="64.5" r="7.5" fill="#FF005A"/>
<circle cx="14.5" cy="92.5" r="7.5" fill="#FF005A"/>
<circle cx="39.5" cy="68.5" r="7.5" fill="#FF005A"/>
<path d="M35.0883 116.695C35.0883 118.732 34.0267 119.75 31.9033 119.75H21.0483C18.9683 119.75 17.9283 118.732 17.9283 116.695V58.975C17.9283 58.1083 18.21 57.3717 18.7733 56.765C19.3367 56.1583 20.0733 55.855 20.9833 55.855H31.7733C32.64 55.855 33.3983 56.1583 34.0483 56.765C34.7417 57.3717 35.0883 58.1083 35.0883 58.975V116.695Z" fill="#5271FF" fill-opacity="0.8"/>
<path fill-rule="evenodd" clip-rule="evenodd" d="M33.9383 74.5818C32.0665 73.2181 30.85 71.0091 30.85 68.5159C30.85 66.0227 32.0665 63.8137 33.9383 62.45V74.5818Z" fill="#122A55" fill-opacity="0.6"/>
<path fill-rule="evenodd" clip-rule="evenodd" d="M18.7 99.3447V86C21.118 87.2449 22.7717 89.7655 22.7717 92.6723C22.7717 95.5792 21.118 98.0998 18.7 99.3447Z" fill="#122A55" fill-opacity="0.6"/>
<path d="M95.0263 96.9425H93.1138V117.172C93.1138 118.391 92.4621 119 91.1588 119H78.5363C77.9696 119 77.5163 118.858 77.1763 118.575C76.8363 118.263 76.6663 117.796 76.6663 117.172L76.7938 85.425C76.7938 84.8583 76.9638 84.405 77.3038 84.065C77.6721 83.725 78.1254 83.555 78.6638 83.555H88.1413L74.9663 57.7575C74.6829 57.2475 74.5979 56.8083 74.7113 56.44C74.8246 56.0717 75.1929 55.8875 75.8163 55.8875H76.1988H76.4113H89.1613H89.2888H105.694C107.649 55.8875 109.49 56.1567 111.219 56.695C112.947 57.2333 114.534 57.9842 115.979 58.9475C117.424 59.8825 118.727 61.0158 119.889 62.3475C121.05 63.6508 122.028 65.0675 122.821 66.5975C123.643 68.1275 124.266 69.7425 124.691 71.4425C125.116 73.1142 125.329 74.8142 125.329 76.5425C125.329 78.5825 125.031 80.5942 124.436 82.5775C123.841 84.5608 122.991 86.4025 121.886 88.1025C120.781 89.8025 119.435 91.3183 117.849 92.65C116.262 93.9817 114.477 95.0158 112.494 95.7525L123.926 117.13C124.606 118.377 124.252 119 122.864 119H108.244C106.997 119 106.034 118.377 105.354 117.13L95.0263 96.9425ZM109.136 76.4575C109.136 75.4942 108.952 74.5875 108.584 73.7375C108.215 72.8592 107.705 72.0942 107.054 71.4425C106.402 70.7908 105.623 70.2808 104.716 69.9125C103.81 69.5158 102.804 69.3175 101.699 69.3175H98.4263L105.524 82.6625C106.657 82.0675 107.535 81.2458 108.159 80.1975C108.81 79.1208 109.136 77.8742 109.136 76.4575Z" fill="#5271FF" fill-opacity="0.8"/>
<path fill-rule="evenodd" clip-rule="evenodd" d="M92.1138 103.025V117.172C92.1138 117.483 92.0715 117.753 91.9871 117.984C91.8261 117.995 91.6636 118 91.5 118C87.3579 118 84 114.642 84 110.5C84 106.358 87.3579 103 91.5 103C91.7066 103 91.9113 103.008 92.1138 103.025Z" fill="#122A55" fill-opacity="0.6"/>
<path fill-rule="evenodd" clip-rule="evenodd" d="M88.2165 83.2233C89.5148 82.147 91.1818 81.5 93 81.5C97.1421 81.5 100.5 84.8579 100.5 89C100.5 93.1421 97.1421 96.5 93 96.5C88.8579 96.5 85.5 93.1421 85.5 89C85.5 87.1055 86.2024 85.3751 87.361 84.055H88.6413L88.2165 83.2233Z" fill="#122A55" fill-opacity="0.6"/>
<path fill-rule="evenodd" clip-rule="evenodd" d="M121.481 86.9561C121.449 87.005 121.418 87.0538 121.386 87.1025C120.281 88.8025 118.935 90.3183 117.349 91.65C115.772 92.9734 113.999 94.003 112.031 94.7388C108.844 93.8738 106.5 90.9606 106.5 87.5C106.5 83.3579 109.858 80 114 80C117.959 80 121.202 83.0679 121.481 86.9561Z" fill="#122A55" fill-opacity="0.6"/>
<path d="M165.825 80.656C166.422 80.656 166.934 80.8693 167.361 81.296C167.787 81.7227 168.001 82.2987 168.001 83.024V91.792C168.001 92.432 167.809 92.9653 167.425 93.392C167.041 93.8187 166.507 94.032 165.825 94.032H142.913V103.696H170.433C171.03 103.696 171.542 103.931 171.969 104.4C172.438 104.827 172.673 105.403 172.673 106.128V116.56C172.673 117.2 172.459 117.733 172.033 118.16C171.649 118.587 171.115 118.8 170.433 118.8H128.513C127.318 118.757 126.72 118.011 126.72 116.56V58.256C126.72 56.7626 127.467 56.016 128.961 56.016H169.025C169.707 56.016 170.241 56.2293 170.625 56.656C171.009 57.0826 171.201 57.616 171.201 58.256V68.432C171.201 69.1573 170.987 69.7333 170.561 70.16C170.134 70.5867 169.622 70.8 169.025 70.8H142.913V80.656H165.825Z" fill="#5271FF" fill-opacity="0.8"/>
<path fill-rule="evenodd" clip-rule="evenodd" d="M146.5 70.984C150.642 70.984 154 67.6262 154 63.484C154 60.7169 152.501 58.2998 150.272 57H142.728C140.499 58.2998 139 60.7169 139 63.484C139 67.6262 142.358 70.984 146.5 70.984Z" fill="#122A55" fill-opacity="0.6"/>
<path fill-rule="evenodd" clip-rule="evenodd" d="M166.361 81.64C165.934 81.2133 165.422 81 164.825 81H162.799C161.092 82.3747 160 84.4818 160 86.844C160 90.4215 162.505 93.4139 165.856 94.1633C166.072 94.0592 166.262 93.9167 166.425 93.736C166.809 93.3093 167.001 92.776 167.001 92.136V83.368C167.001 82.6427 166.787 82.0667 166.361 81.64Z" fill="#122A55" fill-opacity="0.6"/>
<path d="M220.322 118.75H176.512C174.735 118.75 173.847 118.1 173.847 116.8C173.847 116.323 173.869 115.955 173.912 115.695C173.999 115.392 174.064 115.218 174.107 115.175C177.747 106.465 181.387 97.7767 185.027 89.11C188.667 80.4 192.329 71.69 196.012 62.98C196.532 61.7233 197.074 60.4883 197.637 59.275C198.2 58.0617 198.785 56.8483 199.392 55.635C199.609 55.245 199.912 54.8983 200.302 54.595C200.692 54.2483 201.342 54.075 202.252 54.075H210.312C210.962 54.075 211.482 54.205 211.872 54.465C212.305 54.6817 212.652 54.985 212.912 55.375C213.172 55.7217 213.389 56.1117 213.562 56.545C213.735 56.935 213.887 57.2817 214.017 57.585C215.664 61.4417 217.18 64.995 218.567 68.245C219.954 71.4517 221.275 74.5283 222.532 77.475C223.832 80.3783 225.089 83.2383 226.302 86.055C227.515 88.8283 228.75 91.71 230.007 94.7C231.307 97.69 232.65 100.875 234.037 104.255C235.467 107.592 237.027 111.297 238.717 115.37H238.652C238.695 115.457 238.739 115.652 238.782 115.955C238.869 116.258 238.912 116.497 238.912 116.67C238.912 118.057 237.98 118.75 236.117 118.75H227.017H220.322ZM206.217 77.54C204.787 81.3533 203.249 85.4483 201.602 89.825C199.955 94.2017 198.287 98.6867 196.597 103.28H216.097C214.45 98.9467 212.804 94.6567 211.157 90.41C209.51 86.1633 207.864 81.8733 206.217 77.54Z" fill="#5271FF" fill-opacity="0.8"/>
<path fill-rule="evenodd" clip-rule="evenodd" d="M199.718 57.0424C199.981 57.0144 200.249 57 200.52 57C204.662 57 208.02 60.3579 208.02 64.5C208.02 68.6421 204.662 72 200.52 72C198.054 72 195.867 70.8107 194.5 68.9746C195.343 66.9764 196.187 64.9782 197.032 62.98C197.552 61.7233 198.093 60.4883 198.657 59.275C199.002 58.5308 199.356 57.7866 199.718 57.0424Z" fill="#122A55" fill-opacity="0.6"/>
<path d="M263.929 56.821C268.171 56.905 272.119 57.766 275.773 59.404C279.427 61 282.577 63.184 285.223 65.956C287.911 68.728 290.011 71.983 291.523 75.721C293.035 79.459 293.791 83.449 293.791 87.691C293.791 91.891 293.035 95.881 291.523 99.661C290.053 103.399 287.995 106.696 285.349 109.552C282.745 112.366 279.637 114.613 276.025 116.293C272.455 117.931 268.549 118.75 264.307 118.75H241.438C240.052 118.666 239.359 117.847 239.359 116.293V59.341C239.359 57.661 240.199 56.821 241.879 56.821H263.929ZM255.802 103.378H262.417C264.643 103.378 266.659 103 268.465 102.244C270.313 101.446 271.867 100.354 273.127 98.968C274.429 97.54 275.416 95.881 276.088 93.991C276.802 92.059 277.159 89.959 277.159 87.691C277.159 85.507 276.802 83.47 276.088 81.58C275.374 79.69 274.345 78.052 273.001 76.666C271.699 75.28 270.124 74.188 268.276 73.39C266.428 72.592 264.37 72.193 262.102 72.193H255.802V103.378Z" fill="#5271FF" fill-opacity="0.8"/>
<path fill-rule="evenodd" clip-rule="evenodd" d="M270.815 58C272.171 58.3836 273.49 58.8629 274.773 59.4381C277.441 60.6034 279.841 62.0823 281.971 63.8747C281.99 64.092 282 64.3119 282 64.5341C282 68.6762 278.642 72.0341 274.5 72.0341C270.358 72.0341 267 68.6762 267 64.5341C267 61.7311 268.538 59.2872 270.815 58Z" fill="#122A55" fill-opacity="0.6"/>
<path fill-rule="evenodd" clip-rule="evenodd" d="M276 95.9861C276.335 95.3499 276.627 94.682 276.876 93.9825C277.59 92.0505 277.947 89.9505 277.947 87.6825C277.947 85.4985 277.59 83.4615 276.876 81.5715C276.803 81.3784 276.726 81.1879 276.647 81C280.622 81.1876 283.787 84.4699 283.787 88.4915C283.787 92.6337 280.429 95.9915 276.287 95.9915C276.191 95.9915 276.095 95.9897 276 95.9861Z" fill="#122A55" fill-opacity="0.6"/>
<circle cx="91.5" cy="64.5" r="7.5" fill="#122A55" fill-opacity="0.6"/>
<path fill-rule="evenodd" clip-rule="evenodd" d="M250.5 72C254.642 72 258 68.6421 258 64.5C258 60.3579 254.642 57 250.5 57C246.358 57 243 60.3579 243 64.5C243 68.6421 246.358 72 250.5 72Z" fill="#122A55" fill-opacity="0.6"/>
</svg>
